<svg data-v-423bf9ae="" xmlns="http://www.w3.org/2000/svg" viewBox="0 0 41044 45676" class="iconLeftSlogan"><!----><!----><!----><g data-v-423bf9ae="" id="9e2decf4-3483-4691-bb87-dba05ae72f87" fill="white" transform="matrix(5.917159562968884,0,0,5.917159562968884,40653.008600373534,-18.4615376361349)"><path d="M9.17 8.19L9.17 8.19L9.17 8.19Q9.17 9.45 8.78 10.38L8.78 10.38L8.78 10.38Q8.39 11.31 7.67 11.92L7.67 11.92L7.67 11.92Q6.96 12.53 5.96 12.83L5.96 12.83L5.96 12.83Q4.97 13.13 3.78 13.13L3.78 13.13L3.78 13.13Q3.19 13.13 2.48 13.08L2.48 13.08L2.48 13.08Q1.78 13.03 1.20 12.89L1.20 12.89L1.20 3.49L1.20 3.49Q1.78 3.35 2.48 3.30L2.48 3.30L2.48 3.30Q3.19 3.25 3.78 3.25L3.78 3.25L3.78 3.25Q4.97 3.25 5.96 3.55L5.96 3.55L5.96 3.55Q6.96 3.85 7.67 4.46L7.67 4.46L7.67 4.46Q8.39 5.07 8.78 6.00L8.78 6.00L8.78 6.00Q9.17 6.93 9.17 8.19ZM3.89 11.94L3.89 11.94L3.89 11.94Q5.82 11.94 6.78 10.96L6.78 10.96L6.78 10.96Q7.73 9.97 7.73 8.19L7.73 8.19L7.73 8.19Q7.73 6.41 6.78 5.42L6.78 5.42L6.78 5.42Q5.82 4.44 3.89 4.44L3.89 4.44L3.89 4.44Q3.32 4.44 3.00 4.45L3.00 4.45L3.00 4.45Q2.69 4.47 2.56 4.48L2.56 4.48L2.56 11.90L2.56 11.90Q2.69 11.91 3.00 11.93L3.00 11.93L3.00 11.93Q3.32 11.94 3.89 11.94ZM17.46 13.05L11.19 13.05L11.19 3.35L17.11 3.35L17.11 4.51L12.54 4.51L12.54 7.39L16.60 7.39L16.60 8.53L12.54 8.53L12.54 11.89L17.46 11.89L17.46 13.05ZM25.56 3.35L27.02 3.35L27.02 3.35Q26.49 4.89 26.00 6.20L26.00 6.20L26.00 6.20Q25.52 7.50 25.06 8.68L25.06 8.68L25.06 8.68Q24.60 9.86 24.14 10.93L24.14 10.93L24.14 10.93Q23.69 12.00 23.21 13.05L23.21 13.05L21.94 13.05L21.94 13.05Q21.46 12.00 21.01 10.93L21.01 10.93L21.01 10.93Q20.55 9.86 20.08 8.68L20.08 8.68L20.08 8.68Q19.61 7.50 19.12 6.20L19.12 6.20L19.12 6.20Q18.63 4.89 18.12 3.35L18.12 3.35L19.61 3.35L19.61 3.35Q20.37 5.56 21.10 7.60L21.10 7.60L21.10 7.60Q21.83 9.65 22.60 11.44L22.60 11.44L22.60 11.44Q23.37 9.66 24.09 7.61L24.09 7.61L24.09 7.61Q24.82 5.56 25.56 3.35L25.56 3.35ZM35.77 13.26L35.77 13.26L35.77 13.26Q34.75 13.26 33.91 12.92L33.91 12.92L33.91 12.92Q33.07 12.59 32.47 11.94L32.47 11.94L32.47 11.94Q31.86 11.30 31.53 10.35L31.53 10.35L31.53 10.35Q31.21 9.41 31.21 8.19L31.21 8.19L31.21 8.19Q31.21 6.97 31.58 6.03L31.58 6.03L31.58 6.03Q31.95 5.08 32.58 4.44L32.58 4.44L32.58 4.44Q33.21 3.79 34.05 3.46L34.05 3.46L34.05 3.46Q34.89 3.12 35.84 3.12L35.84 3.12L35.84 3.12Q36.44 3.12 36.92 3.21L36.92 3.21L36.92 3.21Q37.41 3.29 37.77 3.40L37.77 3.40L37.77 3.40Q38.12 3.51 38.35 3.63L38.35 3.63L38.35 3.63Q38.57 3.74 38.65 3.79L38.65 3.79L38.26 4.91L38.26 4.91Q38.14 4.83 37.90 4.73L37.90 4.73L37.90 4.73Q37.66 4.63 37.36 4.54L37.36 4.54L37.36 4.54Q37.06 4.44 36.70 4.38L36.70 4.38L36.70 4.38Q36.34 4.31 35.98 4.31L35.98 4.31L35.98 4.31Q35.21 4.31 34.59 4.58L34.59 4.58L34.59 4.58Q33.98 4.84 33.54 5.35L33.54 5.35L33.54 5.35Q33.11 5.85 32.88 6.57L32.88 6.57L32.88 6.57Q32.65 7.29 32.65 8.19L32.65 8.19L32.65 8.19Q32.65 9.06 32.85 9.77L32.85 9.77L32.85 9.77Q33.05 10.49 33.46 11.00L33.46 11.00L33.46 11.00Q33.87 11.51 34.48 11.79L34.48 11.79L34.48 11.79Q35.08 12.07 35.90 12.07L35.90 12.07L35.90 12.07Q36.83 12.07 37.45 11.87L37.45 11.87L37.45 11.87Q38.07 11.68 38.37 11.52L38.37 11.52L38.72 12.64L38.72 12.64Q38.63 12.71 38.37 12.82L38.37 12.82L38.37 12.82Q38.12 12.92 37.74 13.02L37.74 13.02L37.74 13.02Q37.37 13.12 36.86 13.19L36.86 13.19L36.86 13.19Q36.36 13.26 35.77 13.26ZM46.38 7.39L46.38 3.35L47.74 3.35L47.74 13.05L46.38 13.05L46.38 8.57L41.64 8.57L41.64 13.05L40.28 13.05L40.28 3.35L41.64 3.35L41.64 7.39L46.38 7.39ZM58.11 13.05L56.63 13.05L56.63 13.05Q56.39 12.42 56.18 11.81L56.18 11.81L56.18 11.81Q55.97 11.20 55.75 10.57L55.75 10.57L51.35 10.57L50.47 13.05L49.06 13.05L49.06 13.05Q49.62 11.51 50.11 10.20L50.11 10.20L50.11 10.20Q50.60 8.89 51.07 7.71L51.07 7.71L51.07 7.71Q51.53 6.54 52.00 5.47L52.00 5.47L52.00 5.47Q52.46 4.40 52.96 3.35L52.96 3.35L54.21 3.35L54.21 3.35Q54.71 4.40 55.17 5.47L55.17 5.47L55.17 5.47Q55.64 6.54 56.11 7.71L56.11 7.71L56.11 7.71Q56.57 8.89 57.06 10.20L57.06 10.20L57.06 10.20Q57.55 11.51 58.11 13.05L58.11 13.05ZM51.74 9.45L55.36 9.45L55.36 9.45Q54.91 8.23 54.47 7.09L54.47 7.09L54.47 7.09Q54.03 5.95 53.55 4.90L53.55 4.90L53.55 4.90Q53.06 5.95 52.62 7.09L52.62 7.09L52.62 7.09Q52.18 8.23 51.74 9.45L51.74 9.45ZM58.45 3.35L65.91 3.35L65.91 4.52L62.86 4.52L62.86 13.05L61.50 13.05L61.50 4.52L58.45 4.52L58.45 3.35Z"></path></g><!----><g data-v-423bf9ae="" id="cbc8d2b1-6e2e-4611-8268-5a96e11fa0da" transform="matrix(22.52777777777778,0,0,22.52777777777778,-8289.277777777777,-5772.027777777777)" stroke="none" fill="white"><path d="M2172 1685V855c0-66-35-126-91-159l-720-415c-56-33-126-33-182 0L459 696c-56 33-91 93-91 159v830c0 66 35 126 91 159l720 415c56 33 126 33 182 0l720-415c56-33 91-93 91-159zm-902-313l-216 169-81-54v69l297 178 298-178v-68l-82 51-216-167zm-215 145l215-170 215 170 303-191-228-168 216-166-295-186-211 173 265 177-265 174-265-174 265-177-211-173-295 186 216 166-228 168 303 191z"></path></g><!----><g data-v-423bf9ae="" id="81f008e4-7ca1-4618-86c9-53860a2360ce" fill="white" transform="matrix(8.303593198848008,0,0,8.303593198848008,40646.99164272917,23.713300486097907)"><path d="M1.58 13.78L2.41 13.78L2.41 9.91L4.20 9.91C6.24 9.91 7.52 9.03 7.52 7.15C7.52 5.21 6.24 4.54 4.20 4.54L1.58 4.54ZM2.41 9.21L2.41 5.21L4.03 5.21C5.81 5.21 6.68 5.67 6.68 7.15C6.68 8.61 5.82 9.21 4.03 9.21ZM16.95 13.78L17.78 13.78L17.78 9.66L19.63 9.66L22.02 13.78L22.97 13.78L20.54 9.62C21.88 9.34 22.76 8.50 22.76 7.01C22.76 5.21 21.50 4.54 19.67 4.54L16.95 4.54ZM17.78 8.96L17.78 5.21L19.50 5.21C21.06 5.21 21.92 5.70 21.92 7.01C21.92 8.33 21.06 8.96 19.50 8.96ZM35 13.94C37.03 13.94 38.47 12.07 38.47 9.11C38.47 6.20 37.03 4.37 35 4.37C32.97 4.37 31.53 6.19 31.53 9.11C31.53 12.07 32.97 13.94 35 13.94ZM35 13.20C33.43 13.20 32.38 11.59 32.38 9.11C32.38 6.65 33.43 5.11 35 5.11C36.57 5.11 37.62 6.65 37.62 9.11C37.62 11.59 36.57 13.20 35 13.20Z"></path></g></svg>